<?xml version="1.0" encoding="utf-8"?>
<!-- Generator: Adobe Illustrator 22.0.1, SVG Export Plug-In . SVG Version: 6.00 Build 0)  -->
<svg version="1.1" id="Layer_1" xmlns="http://www.w3.org/2000/svg" xmlns:xlink="http://www.w3.org/1999/xlink" x="0px" y="0px"
	 viewBox="0 0 210.7 126" style="enable-background:new 0 0 210.7 126;" xml:space="preserve">
<path d="M86.6,110.1c-12.2,0-23.9-2.3-33.1-5c-17.4-5-29.6-11.7-30.2-12c-0.7-0.4-1.1-1.2-1-2c0.1-0.8,0.7-1.4,1.5-1.6
	c21.4-4.3,33-16.6,54.8-49.3c9.3-13.9,23.5-19.5,41-16.1c13,2.5,23.1,8.9,23.6,9.2c0.9,0.6,1.2,1.8,0.6,2.7
	c-0.6,0.9-1.8,1.2-2.7,0.6c-0.1-0.1-10-6.3-22.3-8.7c-16.1-3-28.5,1.8-37,14.5C62.8,71,50.8,86.2,29.9,92.1
	c13.1,6.2,51.5,21.9,83.2,9.5c18.7-7.3,32.1-23.2,40-47.3c0.3-1,1.4-1.6,2.4-1.2c1,0.3,1.6,1.4,1.2,2.4c-8.3,25.3-22.5,42-42.3,49.7
	C105.4,108.8,95.8,110.1,86.6,110.1z M80.2,88.4c0.5-0.2,0.7-0.7,0.6-1.2l-1.4-3.8l3.3-1.2c2.5-0.9,3.2-3.1,2.5-5.2
	c-0.8-2-2.8-3.2-5.3-2.3l-4.1,1.5c-0.6,0.2-0.9,0.7-0.6,1.3l3.8,10.3C79.1,88.3,79.7,88.6,80.2,88.4z M83.2,77.6
	c0.5,1.3-0.1,2.5-1.4,3l-3,1.1l-1.6-4.2l3-1.1C81.5,75.9,82.7,76.4,83.2,77.6z M90.4,74c-0.1,0.1-0.3,0.2-0.4,0.3
	c-0.5,0.5-1,1.3-1.2,2.1l-0.3-0.6c-0.2-0.4-0.7-0.6-1.2-0.4c-0.4,0.2-0.6,0.7-0.4,1.1l3.1,7.2c0.2,0.4,0.7,0.6,1.1,0.5
	c0.4-0.2,0.6-0.7,0.5-1.1l-2.3-5.3c0.1-0.8,0.9-1.7,1.6-2.1c0.5-0.3,0.7-0.8,0.5-1.1C91.3,74.1,90.9,73.8,90.4,74z M100.5,80.1
	c2.6-1.3,3.3-4,2.1-6.5c-1.2-2.4-3.7-3.6-6.4-2.4c-2.6,1.3-3.3,4-2.1,6.5C95.3,80.1,97.9,81.3,100.5,80.1z M99.8,78.7
	c-1.7,0.8-3.3-0.2-4.1-1.8c-0.8-1.6-0.5-3.5,1.2-4.3c1.7-0.8,3.3,0.2,4.1,1.8C101.8,76,101.5,77.9,99.8,78.7z M102.4,66.3
	c0.6-0.3,0.8-1,0.5-1.5c-0.3-0.6-1-0.7-1.5-0.5c-0.5,0.3-0.8,0.9-0.5,1.5C101.2,66.4,101.9,66.6,102.4,66.3z M107.5,80.6
	c1.7-0.9,2.1-2.4,1.2-4.1l-4.3-8.3c-0.2-0.4-0.8-0.6-1.2-0.4c-0.4,0.2-0.6,0.7-0.4,1.2l4.3,8.3c0.5,1,0.2,1.7-0.5,2
	c-0.1,0-0.1,0.1-0.2,0.1c-0.3,0.2-0.4,0.6-0.2,1c0.2,0.3,0.6,0.5,1,0.3C107.3,80.7,107.4,80.6,107.5,80.6z M108.3,70.7
	c1.4,2.6,4.2,3.3,6.6,2c1.1-0.6,1.9-1.4,2.4-2.5c0.1-0.2,0.1-0.4,0-0.7c-0.2-0.3-0.6-0.5-0.9-0.3c-0.1,0.1-0.2,0.2-0.3,0.3
	c-0.4,0.8-1,1.4-1.7,1.8c-1.6,0.9-3.3,0.3-4.2-1l5.6-3.1c0.6-0.3,0.7-0.8,0.5-1.2c-1.2-2.2-3.8-3.2-6.2-1.9
	C107.6,65.4,106.9,68.3,108.3,70.7z M110.7,65.4c1.7-1,3.2,0,3.8,1.1l-5,2.8C109,68,109,66.3,110.7,65.4z M117.7,65.4
	c1.4,2.4,4.2,3.2,6.6,1.8c1.1-0.7,1.7-1.5,2-2.5c0.1-0.2,0-0.5-0.1-0.7c-0.2-0.4-0.7-0.5-1.1-0.3c-0.2,0.1-0.3,0.3-0.3,0.4
	c-0.2,0.7-0.6,1.2-1.2,1.6c-1.6,0.9-3.3,0.3-4.3-1.3c-1-1.7-0.7-3.5,0.9-4.4c0.6-0.4,1.3-0.5,2-0.3c0.2,0,0.4,0,0.5-0.1
	c0.4-0.2,0.5-0.7,0.3-1.1c-0.1-0.2-0.3-0.3-0.5-0.4c-1-0.2-2-0.1-3.1,0.6C116.9,60.2,116.3,63,117.7,65.4z M131.1,61
	c-0.1,0.1-0.2,0.3-0.5,0.4c-0.5,0.3-1,0.1-1.4-0.5l-2.9-4.5l1-0.6c0.4-0.2,0.5-0.7,0.2-1.1c-0.2-0.3-0.7-0.5-1.1-0.2l-1,0.6
	l-0.9-1.5c-0.3-0.4-0.8-0.5-1.2-0.3c-0.4,0.3-0.5,0.8-0.3,1.2l0.9,1.5l-0.8,0.5c-0.3,0.2-0.5,0.7-0.3,1.1c0.2,0.4,0.7,0.5,1.1,0.2
	l0.8-0.5l3.1,4.9c0.8,1.2,1.9,1.5,3.1,0.8c0.5-0.3,0.8-0.6,1-0.9c0.2-0.2,0.2-0.5,0-0.8C131.9,60.9,131.5,60.8,131.1,61z
	 M142.6,46.9l-3.6,2.4c-0.4,0.3-0.5,0.8-0.2,1.2c0.3,0.4,0.8,0.5,1.2,0.2l2.8-1.9l1.3,1.9c-0.2,0.8-0.8,2.1-2,2.9
	c-2.2,1.5-5.1,0.9-6.7-1.5c-1.6-2.4-1.1-5.2,1.1-6.7c1-0.7,2.2-0.9,3.3-0.7c0.2,0,0.5,0,0.7-0.2c0.4-0.3,0.5-0.8,0.2-1.2
	c-0.1-0.2-0.4-0.3-0.6-0.4c-1.5-0.3-3.1,0-4.7,1c-3.1,2.1-4,6-1.8,9.3c2.3,3.3,6.3,3.8,9.3,1.8c1.6-1.1,2.5-2.5,2.9-4.1
	c0.1-0.5,0-0.9-0.3-1.3l-1.7-2.4C143.7,46.7,143.2,46.6,142.6,46.9z M146,47.1c1.7,2.4,4.5,2.8,6.8,1.1c1-0.7,1.7-1.6,2.1-2.7
	c0.1-0.2,0.1-0.4-0.1-0.7c-0.2-0.3-0.7-0.4-1-0.2c-0.1,0.1-0.2,0.2-0.3,0.3c-0.3,0.8-0.8,1.5-1.4,2c-1.5,1.1-3.2,0.7-4.3-0.5
	l5.2-3.7c0.5-0.4,0.6-0.9,0.3-1.3c-1.4-2-4.1-2.7-6.4-1.1C144.7,42,144.4,44.9,146,47.1z M147.8,41.6c1.6-1.2,3.2-0.4,3.9,0.6
	l-4.6,3.3C146.4,44.4,146.3,42.7,147.8,41.6z M156.2,33.5c-1.1,0.9-1.6,2.2-1.7,3.2l-0.3-0.4c-0.3-0.4-0.9-0.4-1.2-0.2
	c-0.4,0.3-0.4,0.8-0.2,1.2l4.7,6.2c0.3,0.4,0.8,0.5,1.2,0.2c0.4-0.3,0.5-0.8,0.2-1.2l-3.6-4.7c0-0.9,0.4-2,1.2-2.6
	c1-0.7,1.9-0.8,2.8,0.4l3.1,4.1c0.3,0.4,0.8,0.5,1.2,0.2c0.4-0.3,0.5-0.8,0.2-1.2l-3.5-4.6C159.2,32.6,157.7,32.3,156.2,33.5z
	 M163.1,34.4c1.8,2.3,4.7,2.6,6.8,0.8c1-0.8,1.6-1.7,1.9-2.8c0.1-0.2,0-0.4-0.1-0.6c-0.2-0.3-0.7-0.4-1-0.1
	c-0.1,0.1-0.2,0.2-0.2,0.3c-0.2,0.8-0.7,1.5-1.4,2c-1.5,1.2-3.2,0.9-4.3-0.3l5-4c0.5-0.4,0.6-0.9,0.3-1.3c-1.5-1.9-4.3-2.6-6.5-0.8
	C161.6,29.3,161.4,32.3,163.1,34.4z M164.6,28.8c1.5-1.2,3.2-0.5,4,0.4l-4.5,3.5C163.4,31.7,163.2,29.9,164.6,28.8z M174.1,30.6
	c1.2-0.1,2.3-0.5,3.3-1.4c1.9-1.6,2.1-3.4,1.1-4.6c-1.4-1.7-3.1-0.8-4.6,0c-1.1,0.5-2,1-2.5,0.3c-0.5-0.6-0.2-1.4,0.7-2.2
	c0.7-0.6,1.5-0.9,2.2-0.9c0.1,0,0.3-0.1,0.4-0.1c0.3-0.2,0.3-0.7,0.1-1c-0.2-0.2-0.4-0.3-0.6-0.3c-1,0.1-2,0.4-3,1.2
	c-1.8,1.5-1.9,3.3-1,4.4c1.3,1.6,3,0.7,4.4,0c1.1-0.6,2.1-1,2.7-0.3c0.5,0.6,0.3,1.5-0.7,2.3c-0.8,0.6-1.7,0.9-2.6,1
	c-0.1,0-0.3,0.1-0.4,0.2c-0.3,0.3-0.4,0.7-0.1,1.1C173.7,30.5,173.9,30.6,174.1,30.6z M175.3,16.1c0.5-0.4,0.5-1.1,0.1-1.6
	c-0.4-0.5-1.1-0.5-1.6-0.1c-0.5,0.4-0.5,1.1-0.1,1.6C174.1,16.4,174.8,16.5,175.3,16.1z M182.6,24.7c0.4-0.3,0.4-0.9,0.1-1.2l-5-6
	c-0.3-0.4-0.9-0.4-1.2-0.1c-0.4,0.3-0.4,0.9-0.1,1.2l5,6C181.7,25,182.2,25,182.6,24.7z M184.5,21.9c1.2-0.1,2.3-0.6,3.3-1.4
	c1.9-1.6,2-3.4,1-4.6c-1.4-1.6-3.2-0.7-4.6,0.1c-1.1,0.6-2,1-2.5,0.4c-0.5-0.6-0.2-1.4,0.6-2.2c0.7-0.6,1.5-0.9,2.2-1
	c0.1,0,0.3-0.1,0.4-0.2c0.3-0.3,0.3-0.7,0.1-1c-0.2-0.2-0.4-0.2-0.6-0.2c-1,0.1-2,0.5-3,1.3c-1.7,1.5-1.9,3.3-0.9,4.4
	c1.3,1.5,3,0.6,4.4-0.1c1.1-0.6,2.1-1,2.7-0.3c0.5,0.6,0.4,1.5-0.6,2.3c-0.7,0.6-1.7,1-2.6,1.1c-0.1,0-0.3,0.1-0.4,0.2
	c-0.3,0.3-0.4,0.7-0.1,1.1C184,21.9,184.2,21.9,184.5,21.9z"/>
</svg>
